<svg id="icon" fill="none" xmlns="http://www.w3.org/2000/svg" viewBox="0 0 61 56">
    <path fill-rule="evenodd" clip-rule="evenodd" d="M20.661 55.35c2.27-.005 4.445-.87 6.05-2.404 1.605-1.535 2.508-3.616 2.513-5.787V28.863H9.254a8.885 8.885 0 0 0-3.624.816 8.514 8.514 0 0 0-2.919 2.208 8.06 8.06 0 0 0-1.663 3.185 7.845 7.845 0 0 0-.095 3.559 8.017 8.017 0 0 0 1.493 3.261 8.46 8.46 0 0 0 2.799 2.347 8.917 8.917 0 0 0 7.252.436 7.845 7.845 0 0 0-.295 3.804 8 8 0 0 0 1.54 3.519 8.47 8.47 0 0 0 3.04 2.468 8.875 8.875 0 0 0 3.879.884ZM40.219.04c-2.27.005-4.445.87-6.05 2.405-1.604 1.535-2.508 3.615-2.512 5.786v18.294h19.968a8.885 8.885 0 0 0 3.62-.817 8.513 8.513 0 0 0 2.917-2.209 8.06 8.06 0 0 0 1.663-3.183 7.844 7.844 0 0 0 .093-3.558 8.017 8.017 0 0 0-1.492-3.26 8.46 8.46 0 0 0-2.796-2.346 8.917 8.917 0 0 0-7.248-.439c.409-1.228.51-2.531.293-3.803a8 8 0 0 0-1.54-3.517A8.471 8.471 0 0 0 44.097.925a8.876 8.876 0 0 0-3.878-.884ZM20.662.041c2.27.005 4.445.87 6.05 2.404 1.604 1.535 2.508 3.616 2.513 5.787v18.295H9.254a8.884 8.884 0 0 1-3.621-.817 8.514 8.514 0 0 1-2.917-2.209 8.06 8.06 0 0 1-1.662-3.183A7.844 7.844 0 0 1 .96 16.76a8.017 8.017 0 0 1 1.492-3.26 8.458 8.458 0 0 1 2.797-2.346 8.917 8.917 0 0 1 7.248-.439 7.845 7.845 0 0 1-.294-3.804 8 8 0 0 1 1.54-3.518 8.47 8.47 0 0 1 3.04-2.468A8.876 8.876 0 0 1 20.66.04ZM40.218 55.35c-2.27-.005-4.445-.87-6.05-2.405-1.604-1.535-2.508-3.616-2.512-5.787V28.863h19.968a8.885 8.885 0 0 1 3.623.816 8.514 8.514 0 0 1 2.919 2.208 8.06 8.06 0 0 1 1.664 3.185 7.845 7.845 0 0 1 .094 3.559 8.018 8.018 0 0 1-1.493 3.261 8.459 8.459 0 0 1-2.798 2.347 8.917 8.917 0 0 1-7.252.436c.41 1.228.51 2.532.294 3.804a8 8 0 0 1-1.54 3.518 8.47 8.47 0 0 1-3.038 2.469 8.876 8.876 0 0 1-3.879.884Z" fill="#FFFFFF"/>
</svg>
